<svg width="33" height="32" viewBox="0 0 33 32" fill="none" xmlns="http://www.w3.org/2000/svg">
<g id="Icons">
<path id="Vector" d="M20.4998 18.9333L16.7665 22.6666C16.4998 22.9333 16.1887 23.0666 15.8332 23.0666C15.4776 23.0666 15.1665 22.9333 14.8998 22.6666L3.5665 11.3333C3.29984 11.0666 3.1665 10.7666 3.1665 10.4333C3.1665 10.1 3.29984 9.79996 3.5665 9.53329L7.29984 5.79996C7.5665 5.53329 7.88873 5.39996 8.2665 5.39996C8.64428 5.39996 8.9665 5.53329 9.23317 5.79996L20.4998 17.0666C20.7665 17.3333 20.8998 17.6444 20.8998 18C20.8998 18.3555 20.7665 18.6666 20.4998 18.9333ZM15.8332 19.8666L17.6998 18L8.23317 8.53329L6.3665 10.4L15.8332 19.8666ZM25.2998 29.3333L19.6332 23.6666L21.4998 21.8L27.1665 27.4666L25.2998 29.3333ZM25.1665 12C23.8776 12 22.7776 11.5444 21.8665 10.6333C20.9554 9.72218 20.4998 8.62218 20.4998 7.33329C20.4998 6.0444 20.9554 4.9444 21.8665 4.03329C22.7776 3.12218 23.8776 2.66663 25.1665 2.66663C26.4554 2.66663 27.5554 3.12218 28.4665 4.03329C29.3776 4.9444 29.8332 6.0444 29.8332 7.33329C29.8332 8.62218 29.3776 9.72218 28.4665 10.6333C27.5554 11.5444 26.4554 12 25.1665 12ZM25.1665 9.33329C25.7221 9.33329 26.1943 9.13885 26.5832 8.74996C26.9721 8.36107 27.1665 7.88885 27.1665 7.33329C27.1665 6.77774 26.9721 6.30552 26.5832 5.91663C26.1943 5.52774 25.7221 5.33329 25.1665 5.33329C24.6109 5.33329 24.1387 5.52774 23.7498 5.91663C23.3609 6.30552 23.1665 6.77774 23.1665 7.33329C23.1665 7.88885 23.3609 8.36107 23.7498 8.74996C24.1387 9.13885 24.6109 9.33329 25.1665 9.33329Z" fill="#F7F7F7"/>
</g>
</svg>
