<svg width="32" height="32" viewBox="0 0 32 32" fill="none" xmlns="http://www.w3.org/2000/svg">
<g id="Icons">
<path id="Vector" d="M15.9998 29.3334C14.1554 29.3334 12.4221 28.9834 10.7998 28.2834C9.17762 27.5834 7.7665 26.6334 6.5665 25.4334C5.3665 24.2334 4.4165 22.8222 3.7165 21.2C3.0165 19.5778 2.6665 17.8445 2.6665 16C2.6665 14.1556 3.0165 12.4222 3.7165 10.8C4.4165 9.1778 5.3665 7.76669 6.5665 6.56669C7.7665 5.36669 9.17762 4.41669 10.7998 3.71669C12.4221 3.01669 14.1554 2.66669 15.9998 2.66669C17.8443 2.66669 19.5776 3.01669 21.1998 3.71669C22.8221 4.41669 24.2332 5.36669 25.4332 6.56669C26.6332 7.76669 27.5832 9.1778 28.2832 10.8C28.9832 12.4222 29.3332 14.1556 29.3332 16C29.3332 17.8445 28.9832 19.5778 28.2832 21.2C27.5832 22.8222 26.6332 24.2334 25.4332 25.4334C24.2332 26.6334 22.8221 27.5834 21.1998 28.2834C19.5776 28.9834 17.8443 29.3334 15.9998 29.3334ZM22.6665 12.6667L24.4665 12.0667L24.9998 10.2667C24.2887 9.20002 23.4332 8.28335 22.4332 7.51669C21.4332 6.75002 20.3332 6.1778 19.1332 5.80002L17.3332 7.06669V8.93335L22.6665 12.6667ZM9.33317 12.6667L14.6665 8.93335V7.06669L12.8665 5.80002C11.6665 6.1778 10.5665 6.75002 9.5665 7.51669C8.5665 8.28335 7.71095 9.20002 6.99984 10.2667L7.53317 12.0667L9.33317 12.6667ZM7.93317 22.9334L9.4665 22.8L10.4665 21L8.53317 15.2L6.6665 14.5334L5.33317 15.5334C5.33317 16.9778 5.53317 18.2945 5.93317 19.4834C6.33317 20.6722 6.99984 21.8222 7.93317 22.9334ZM15.9998 26.6667C16.5776 26.6667 17.1443 26.6222 17.6998 26.5334C18.2554 26.4445 18.7998 26.3111 19.3332 26.1334L20.2665 24.1334L19.3998 22.6667H12.5998L11.7332 24.1334L12.6665 26.1334C13.1998 26.3111 13.7443 26.4445 14.2998 26.5334C14.8554 26.6222 15.4221 26.6667 15.9998 26.6667ZM12.9998 20H18.9998L20.8665 14.6667L15.9998 11.2667L11.1998 14.6667L12.9998 20ZM24.0665 22.9334C24.9998 21.8222 25.6665 20.6722 26.0665 19.4834C26.4665 18.2945 26.6665 16.9778 26.6665 15.5334L25.3332 14.6L23.4665 15.2L21.5332 21L22.5332 22.8L24.0665 22.9334Z" fill="#F7F7F7"/>
</g>
</svg>
