<svg xmlns="http://www.w3.org/2000/svg" viewBox="0 0 1080 1080"><defs><style>.cls-1{isolation:isolate;}.cls-10,.cls-11,.cls-2,.cls-4,.cls-7,.cls-8{fill:none;}.cls-2{stroke:#f7dfe3;strokeWidth:5.13px;}.cls-10,.cls-11,.cls-12,.cls-13,.cls-2,.cls-4,.cls-7,.cls-8{stroke-miterlimit:10;}.cls-12,.cls-13,.cls-3{fill:#cf2026;}.cls-4{stroke:#010101;strokeWidth:1.01px;}.cls-5{fill:#e7e7e7;}.cls-6{fill:#9d1c1f;}.cls-11,.cls-6,.cls-8{mix-blend-mode:multiply;opacity:0.3;}.cls-10,.cls-12,.cls-13,.cls-7{stroke:#cf2026;}.cls-7,.cls-8{strokeWidth:6.41px;}.cls-11,.cls-8{stroke:#9d1c1f;}.cls-9{fill:#f7dfe3;}.cls-10,.cls-11{strokeWidth:7.89px;}.cls-12{strokeWidth:1px;}.cls-13{strokeWidth:2.08px;}</style></defs><g class="cls-1"><g id="object"><path class="cls-2" d="M541.57,939.5a309.58,309.58,0,0,1-256.9-482.32L262,439.08l-4.57,5.7L230,423.66l7-8.77c-12.82-8.91-35.78-22.25-58.35-22.25A51.48,51.48,0,0,0,168,393.73l-8.28,1.75L52.11,242.42l174.3,65.33.69,8.07c.14,1.47,3.88,35.37,39.59,62l8-10,27.37,21.12-5,6.19,23.07,18.4a308.69,308.69,0,0,1,195.92-92.1V292.19l-7.31,0-.55-34.57,11.24,0c-1.18-18.08-6.19-50.44-26.49-67.15l-6.54-5.38L539.06,5.5l57.58,177-5.88,5.57c-1.06,1-25.23,25.09-23.8,69.63l12.85,0,.55,34.57-7.92,0v29.63a308.76,308.76,0,0,1,194.27,95.55l22.74-18.14-4.55-5.72,26.69-22,7,8.8c13.41-12.2,35.58-36.29,36-62.58l.13-8.47,173.19-70.87L925.4,393.88l-8-1.12h0a47.52,47.52,0,0,0-5.24-.24c-11,0-37.63,2.61-64,25l8,10.07-26.68,22-4.93-6.2-23,18.33A309.59,309.59,0,0,1,541.57,939.5Z"/><g id="spear"><polyline class="cls-3" points="785.54 458.05 827.28 424.77 808.17 400.8 766.47 434.05"/><path class="cls-4" d="M815.63,399.5S866.69,363,867.4,318L994.32,266.1l-75.17,114s-47.29-6.66-89.4,37.16Z"/><polygon class="cls-4" points="802.78 395.49 831.33 431.41 838.21 425.74 809.67 389.82 802.78 395.49"/><path class="cls-5" d="M976.66,286l-69.94,73.76s-51.53,9.65-63.05,41.46c0,0,34.91-28.23,73.25-24.44Z"/></g><g id="spear-2" data-name="spear"><polyline class="cls-3" points="320.21 429.91 278.36 396.54 259.25 420.5 301.13 453.9"/><path class="cls-4" d="M256.32,413.51s-46.93-41.65-90.95-32.33L86.49,269l127.83,47.92s4,47.58,56.12,78.88Z"/><polygon class="cls-4" points="255.26 426.93 283.93 391.11 276.87 385.66 248.2 421.48 255.26 426.93"/><path class="cls-5" d="M109.8,281.79l87.48,51.77s20.88,48.08,54.45,52.24c0,0-35.29-27.75-40.13-66Z"/></g><polyline class="cls-3" points="559.61 332.06 559.61 278.48 528.96 278.48 528.96 332.06"/><polyline class="cls-6" points="785.54 458.05 827.28 424.77 808.17 400.8 766.47 434.05"/><polyline class="cls-6" points="320.21 429.91 278.36 396.54 259.25 420.5 301.13 453.9"/><polyline class="cls-6" points="559.61 333.19 559.61 278.48 528.96 278.48 528.96 333.19"/><path class="cls-4" d="M532.6,271.83s3.31-62.66-31.42-91.26L539.7,48.94l42.24,129.82s-34.69,32.83-26.69,93.07Z"/><polygon class="cls-4" points="521.45 279.37 567.33 279.45 567.19 270.53 521.31 270.45 521.45 279.37"/><path class="cls-5" d="M544.24,75.15,558.3,175.82s-24.58,46.3-6.89,75.14c0,0-.31-44.89,26.55-72.5Z"/><circle id="outer" class="cls-7" cx="541.57" cy="629.93" r="296.74"/><circle id="outer-2" data-name="outer" class="cls-8" cx="541.57" cy="629.93" r="296.74"/><path class="cls-9" d="M536.4,831.48Q535,862.72,533.66,894c-7.69-.39-15.86-1.1-24.44-2.24a304.52,304.52,0,0,1-42.7-8.82,175.35,175.35,0,0,1,4.66-17.26c2.13-6.55,3.89-13.93,6.23-19.17,4.12,1.57,9.17,2.23,14.37,3.51A117.84,117.84,0,0,0,512,853.13q-1,6.81-2,13.63a72.17,72.17,0,0,1-23.48-5l-3.82,11.34s12.8,8.42,38.13,6.37l2.11-37.29c-7.07-.75-14.41-1.69-22-2.86-11.31-1.75-22-3.83-32-6.1l-19.22,57A259.88,259.88,0,0,0,503,903.32c56.43,7.68,103.13-5.1,130.39-15.25l-23-57.85a195.72,195.72,0,0,1-53.75,11.56s4.6,36.11,5.3,37.74c0,0,24.32,1.8,37.87-8.48l-4.64-10.74s-13.06,5.36-22.36,5.5l-3.38-13.06s25.35-3.52,34-8.86L617,881.3a214.42,214.42,0,0,1-66.55,13.13L545.66,832Z"/><path class="cls-9" d="M695.93,759.63l47.16,41.11c-5.11,5.77-10.76,11.72-17,17.72a304.42,304.42,0,0,1-33.51,27.88A178.34,178.34,0,0,1,682,831.94c-3.8-5.75-8.47-11.73-11.1-16.83,3.79-2.23,7.45-5.77,11.69-9a117.14,117.14,0,0,0,15.07-13.87L707,802.29a72.34,72.34,0,0,1-18.58,15.21l6.47,10s14.56-4.75,28.76-25.84l-27.84-24.89q-7.5,7.59-15.94,15.39c-8.42,7.75-16.7,14.8-24.72,21.22L687.77,864a259.8,259.8,0,0,0,43.52-33.49c41.19-39.34,60.32-83.82,69.38-111.45L741.09,701a195.77,195.77,0,0,1-24.48,49.24s31.1,18.92,32.81,19.38c0,0,16.57-17.88,17-34.9l-11.29-3.07s-4,13.56-9.64,20.92l-12.31-5.5s13.05-22,14.26-32.1l37.68,12.77a214.22,214.22,0,0,1-31.23,60.22l-51.76-35.22Z"/><path class="cls-9" d="M739.21,590.12l61.55-11.25c1.33,7.59,2.45,15.72,3.25,24.34a304.49,304.49,0,0,1,.91,43.59,177.42,177.42,0,0,1-17.87-.71c-6.86-.61-14.44-.69-20.07-1.81.62-4.36.13-9.43.22-14.78a116.88,116.88,0,0,0-1.45-20.43L779.49,608a72.24,72.24,0,0,1,.31,24l11.9,1.21s5.36-14.35-2.28-38.6l-36.82,6.25q1.26,10.59,2.1,22.06c.81,11.41,1.16,22.29,1.17,32.56l59.85,6a259.22,259.22,0,0,0,1-54.91c-5.08-56.72-27.93-99.41-43.89-123.72l-51.28,35.31a192.25,192.25,0,0,1,11.2,19.58,195,195,0,0,1,12,30.25s34.18-12.51,35.61-13.56c0,0-3.65-24.11-16.7-35l-9.44,6.92s8.14,11.54,10.34,20.58l-12,6.19s-9.07-23.93-16.2-31.16l33.48-21.5a215,215,0,0,1,27.61,62L737.66,581Z"/><path class="cls-9" d="M633.67,450.58l29.58-55.13c6.75,3.7,13.81,7.88,21,12.63a304.89,304.89,0,0,1,34.64,26.47,177.43,177.43,0,0,1-11.68,13.53c-4.76,5-9.55,10.86-13.93,14.57-3-3.21-7.29-6-11.43-9.39A117.39,117.39,0,0,0,665,441.65l7.74-11.39a72.07,72.07,0,0,1,19,14.73l8.36-8.55s-7.87-13.14-31.59-22.29l-18.08,32.68Q659.51,452.46,669,459c9.43,6.48,18.15,13,26.19,19.38l42.05-43a259.9,259.9,0,0,0-42.34-35c-47.52-31.4-95.14-40.15-124.09-42.83q-2.19,31-4.37,62.11a195.77,195.77,0,0,1,53.45,12.9s11.52-34.52,11.6-36.3c0,0-21.13-12.17-37.81-8.79l-.47,11.69s14.09.84,22.53,4.75l-2.62,13.23s-24.37-7.82-34.46-6.76l4.05-39.58a214.47,214.47,0,0,1,65.66,17Q637,417,625.55,446.09Z"/><path class="cls-9" d="M458.77,446.11l-24.66-57.5c7.1-3,14.77-5.89,23-8.58a303.14,303.14,0,0,1,42.29-10.59A178.06,178.06,0,0,1,502.69,387c.93,6.83,2.54,14.24,2.7,20-4.38.36-9.22,2-14.46,3.07a118.26,118.26,0,0,0-19.59,6l-4.08-13.16a72,72,0,0,1,23.34-5.64l-1.47-11.87s-15.19-2-37.13,10.81l14.29,34.5q10.05-3.59,21-7c10.94-3.33,21.47-6.1,31.48-8.4q-3.7-29.83-7.42-59.69a259.06,259.06,0,0,0-53.74,11.29c-54.18,17.57-90.71,49.35-110.86,70.32l45.84,42.14A195.31,195.31,0,0,1,436,445.62s-19.81-30.53-21.15-31.7c0,0-22.69,8.93-30.44,24.08l8.84,7.66s9.45-10.5,17.77-14.66l8.7,10.3S398.45,455.48,393,464l-28.41-27.85a212.92,212.92,0,0,1,16.58-15.43,215.34,215.34,0,0,1,37.68-25.28l31.35,54.19Z"/><path class="cls-9" d="M346.22,580.07,285.89,563.5c2.1-7.41,4.61-15.22,7.63-23.34a305.25,305.25,0,0,1,18.09-39.66,175.51,175.51,0,0,1,15.79,8.38c5.92,3.53,12.72,6.89,17.31,10.34-2.45,3.66-4.21,8.44-6.62,13.22a118.2,118.2,0,0,0-7.55,19l-12.84-5a72,72,0,0,1,10.14-21.76l-10.19-6.26s-11.06,10.61-14.7,35.77l35.88,10.35q3.46-10.09,7.69-20.79c4.22-10.63,8.62-20.59,13.06-29.85l-51.3-31.42a259.67,259.67,0,0,0-24.68,49.06c-20,53.32-18,101.69-14.13,130.52L331,652.51a195.53,195.53,0,0,1,.68-55s-36.22-3.55-38-3.23c0,0-7.16,23.31-.15,38.81l11.5-2.13s-2.32-13.93-.38-23l13.47-.39s-2.2,25.5,1.09,35.11l-39.49,4.85a214.59,214.59,0,0,1,2-67.81L343.65,589Z"/><path class="cls-9" d="M380.79,751.58l-50.57,36.83c-4.48-6.25-9-13.09-13.49-20.51A305.5,305.5,0,0,1,297,729a176.34,176.34,0,0,1,16.4-7.12c6.45-2.43,13.31-5.65,18.87-7.09,1.34,4.2,4,8.56,6.22,13.42A117.79,117.79,0,0,0,348.65,746l-11.91,6.91a71.93,71.93,0,0,1-10.7-21.5l-11.25,4.08s1.4,15.26,18.81,33.79l30.46-21.61q-5.74-9-11.46-19c-5.69-9.93-10.73-19.58-15.2-28.83l-56.54,20.52a258.77,258.77,0,0,0,23,49.88c29.2,48.91,68.31,77.45,93.24,92.43l30.87-54.07a195.64,195.64,0,0,1-42.56-34.81S360,800,359.18,801.51c0,0,13.75,20.14,30.24,24.32l5.51-10.32s-12.34-6.87-18.25-14.06l8.1-10.78s18.56,17.62,28.12,21l-20.82,33.9a214.53,214.53,0,0,1-51.77-43.84l45.85-42.63Z"/><circle id="inner" class="cls-10" cx="541.57" cy="629.93" r="186.95"/><circle id="inner-2" data-name="inner" class="cls-11" cx="541.57" cy="629.93" r="186.95"/><path class="cls-3" d="M607.1,566.77c3.66,13.9,14.66,41.86,5.79,83s-65.78,58.83-79.68,64.61,38.67,39,52.67,22.57,9.46-26.81,32-37.61,38-27.77,36.65-42.63-11.38-16-12.93-21,9.07-2.13,3.28-40.9S610,558.68,607.1,566.77Z"/><path class="cls-3" d="M590.61,585.26c21.89,36.87,13.09,64.91,6.47,76.42-6.9,12-43.61,47.27-69.65,31.46-32.89-20-26.15-27-46.41-28.57-.06-3.08-.08-25.84,33.09-24.1,32.22,1.69,73.51,7.55,74.14-54.4C588.27,584.21,589.69,583.72,590.61,585.26Z"/><path class="cls-3" d="M595.48,573.14c-.84-13.27-3.77-45.51-47.86-46.88-31-1-54.15,24.7-61.86,41.67s.17,54,9.63,54.2c5.5.11,4.52-9.36,5.22-21.21.67-11,1.83-22,5.93-31.45C515,550,530.9,547.1,552.7,547.1s33.28,20.23,40.07,28.26C594.52,577.44,595.69,576.58,595.48,573.14Z"/><path class="cls-3" d="M480.45,615.67c-17-58,15.63-66.6,13-70.88-2.69-4.44-21.79-7.34-30.67-.2S449.49,560,449.88,580.28c.3,15.54,18,30.39,27.21,37.59C479.91,620.06,481.06,617.76,480.45,615.67Z"/><path class="cls-3" d="M530.9,706.88c-.39-4.43-20.83-13.94-30.86-24.16s-31.25-15.83-31.25-15.83,7.26-21.41,3-33.17-16.67-28.56-20.33-29.52-25.07,6.37-19.29,23.53-7.72,30.29,5,54.8S531.29,711.32,530.9,706.88Z"/><path class="cls-3" d="M512,630.25c3.85,2.31,24.91,4.12,28.76.46s19.26-27.94,20.81-38.08,1.36-12.19-4.63-18.54-21.21-3.45-26,4.45-1.16,11.77,1.16,12.35-.19-5.21,2.7-8.87,12-7.13,15.24-1.93,2.31,21.8-12.34,22.08c-16.79.32-15.44-18.23-11.78-25.36s22.67-20.74,39.16-5.21c13.51,12.71-1.92,40-5,43.21s-8.88,17.36,2.12,12.35,20.84-17,19.29-39.94-22.37-36.07-44.94-28.93-24.5,21.22-28.36,37.42S508.14,627.93,512,630.25Z"/><path class="cls-3" d="M449.23,702.11c6.63,9.07,44.23,55.27,113.71,43.7a.36.36,0,0,0,0-.7c-7.2-1.52-32.89-8-39.35-24.4a5.47,5.47,0,0,0-5-3.49c-11.29-.23-44.71,0-69-15.61A.35.35,0,0,0,449.23,702.11Z"/><path class="cls-3" d="M481.68,528.28a119.42,119.42,0,0,1,68.62-15.77,1.86,1.86,0,0,1,.27,3.67,169.83,169.83,0,0,0-47.74,18.5,1.82,1.82,0,0,1-1.62.11,43.48,43.48,0,0,0-18.45-3.07A1.85,1.85,0,0,1,481.68,528.28Z"/><path class="cls-3" d="M559.39,513.29c14,3.85,40.1,6.47,71.79,40.13a1.14,1.14,0,0,1-1.13,1.86c-6.49-1.69-20-4.14-26.62,2.54a1.1,1.1,0,0,1-1.87-.52c-4.63-28.57-20.22-29.67-43-41.92A1.13,1.13,0,0,1,559.39,513.29Z"/><path class="cls-3" d="M445.21,564.61c-1.94,6.91-4.17,20.41,2.43,33.66a.7.7,0,0,1-.58,1c-3.53.21-14.7,1.66-20.3,11.7a.71.71,0,0,1-1.32-.49c1.84-9.74,6.7-28.82,18.47-46.49A.72.72,0,0,1,445.21,564.61Z"/><path class="cls-3" d="M600.15,731.94c7.54-4.24,26.68-16.37,38-35.77a.47.47,0,0,0-.74-.57c-9.13,8.85-10.88,6.59-23.15,13.19-1,.55-5.4,3.24-6.48,6.48s-4.32,8.64-8.25,15.83C599.21,731.64,599.62,732.23,600.15,731.94Z"/><path class="cls-3" d="M653.41,594.89c1,8,2.8,26,0,34.8a4.05,4.05,0,0,0,.27,3.11,45.49,45.49,0,0,1,3.69,9.53.69.69,0,0,0,1.35-.12c.73-9.13,1.57-30.57-4.42-47.55A.48.48,0,0,0,653.41,594.89Z"/><path class="cls-3" d="M425.48,619.52a.35.35,0,0,1,.69.12c-.11,3.11.14,8.63,2.75,13,0,0,2.56,5.13,1.28,10.26a62.75,62.75,0,0,0-2.38,15,.35.35,0,0,1-.69.09C425.36,650.06,421.8,631.05,425.48,619.52Z"/><path class="cls-12" d="M265.35,977v13.1H229v31.29h36.38l-7.28,13.1H229v31.28h36.38v13.1H214.41V977Z"/><path class="cls-12" d="M322.94,1023.74v55.08H308.39V973.68l29.11,50,29.1-50v105.14H352.05v-55.08l-14.55,25Z"/><path class="cls-12" d="M467.85,1049.72a29.06,29.06,0,0,1-29.1,29.1H409.64V977h29.11a29.07,29.07,0,0,1,29.1,29.11,26.87,26.87,0,0,1-8.51,20.23,19.47,19.47,0,0,1-1.82,1.6,18.12,18.12,0,0,1,1.82,1.6A26.84,26.84,0,0,1,467.85,1049.72Zm-14.55-43.66q0-7.5-4.26-11.75a14,14,0,0,0-10.29-4.26H424.19v31.29h14.56a13.48,13.48,0,0,0,10.29-4.62A15.25,15.25,0,0,0,453.3,1006.06Zm-14.55,59.66a14,14,0,0,0,10.29-4.25q4.26-4.26,4.26-11.75a14.93,14.93,0,0,0-4.26-11,14,14,0,0,0-10.29-4.25H424.19v31.28Z"/><path class="cls-12" d="M525.45,990.05v88.77H510.89V977H540a29.09,29.09,0,0,1,29.11,29.11,26.88,26.88,0,0,1-8.52,20.23,28.06,28.06,0,0,1-12.51,7.13l21.83,45.4H553.75l-27.65-57.48H540a14,14,0,0,0,10.3-4.26,14.94,14.94,0,0,0,4.25-11q0-7.5-4.25-11.75a14,14,0,0,0-10.3-4.26Z"/><path class="cls-12" d="M670.36,1049.72a29.11,29.11,0,1,1-58.21,0v-43.66a29.11,29.11,0,1,1,58.21,0Zm-43.66,1.45a14.55,14.55,0,1,0,29.1,0V1004.6a14.55,14.55,0,1,0-29.1,0Z"/><path class="cls-12" d="M771.61,1006.06l-14.55,7.27v-8.73a14.56,14.56,0,1,0-29.11,0q0,11.64,21.83,19.28t21.83,25.84a29.11,29.11,0,1,1-58.21,0l14.55-7.28v8.73a14.56,14.56,0,1,0,29.11,0q0-11.64-21.83-19.28t-21.83-25.83a29.11,29.11,0,1,1,58.21,0Z"/><path class="cls-12" d="M865.59,977v101.87H814.65v-13.1H851v-31.28h-29.1l-7.28-13.1H851V990.05H814.65V977Z"/><path class="cls-12" d="M265.35,977v13.1H229v31.29h36.38l-7.28,13.1H229v31.28h36.38v13.1H214.41V977Z"/><path class="cls-12" d="M322.94,1023.74v55.08H308.39V973.68l29.11,50,29.1-50v105.14H352.05v-55.08l-14.55,25Z"/><path class="cls-12" d="M467.85,1049.72a29.06,29.06,0,0,1-29.1,29.1H409.64V977h29.11a29.07,29.07,0,0,1,29.1,29.11,26.87,26.87,0,0,1-8.51,20.23,19.47,19.47,0,0,1-1.82,1.6,18.12,18.12,0,0,1,1.82,1.6A26.84,26.84,0,0,1,467.85,1049.72Zm-14.55-43.66q0-7.5-4.26-11.75a14,14,0,0,0-10.29-4.26H424.19v31.29h14.56a13.48,13.48,0,0,0,10.29-4.62A15.25,15.25,0,0,0,453.3,1006.06Zm-14.55,59.66a14,14,0,0,0,10.29-4.25q4.26-4.26,4.26-11.75a14.93,14.93,0,0,0-4.26-11,14,14,0,0,0-10.29-4.25H424.19v31.28Z"/><path class="cls-12" d="M525.45,990.05v88.77H510.89V977H540a29.09,29.09,0,0,1,29.11,29.11,26.88,26.88,0,0,1-8.52,20.23,28.06,28.06,0,0,1-12.51,7.13l21.83,45.4H553.75l-27.65-57.48H540a14,14,0,0,0,10.3-4.26,14.94,14.94,0,0,0,4.25-11q0-7.5-4.25-11.75a14,14,0,0,0-10.3-4.26Z"/><path class="cls-12" d="M670.36,1049.72a29.11,29.11,0,1,1-58.21,0v-43.66a29.11,29.11,0,1,1,58.21,0Zm-43.66,1.45a14.55,14.55,0,1,0,29.1,0V1004.6a14.55,14.55,0,1,0-29.1,0Z"/><path class="cls-12" d="M771.61,1006.06l-14.55,7.27v-8.73a14.56,14.56,0,1,0-29.11,0q0,11.64,21.83,19.28t21.83,25.84a29.11,29.11,0,1,1-58.21,0l14.55-7.28v8.73a14.56,14.56,0,1,0,29.11,0q0-11.64-21.83-19.28t-21.83-25.83a29.11,29.11,0,1,1,58.21,0Z"/><path class="cls-12" d="M865.59,977v101.87H814.65v-13.1H851v-31.28h-29.1l-7.28-13.1H851V990.05H814.65V977Z"/><path class="cls-13" d="M265.35,977.63v13.1H229V1022h36.38l-7.28,13.09H229v31.29h36.38v13.1H214.41V977.63Z"/><path class="cls-13" d="M265.85,1080H213.91V977.13h51.94v14.1H229.47v30.29H266.2l-7.83,14.09h-28.9v30.29h36.38Zm-50.93-1h49.93v-12.1H228.47v-32.29h29.31l6.72-12.09h-36V990.23h36.38v-12.1H214.92Z"/><path class="cls-13" d="M322.94,1024.42v55.08H308.39V974.36l29.11,50,29.1-50V1079.5H352.05v-55.08l-14.55,25Z"/><path class="cls-13" d="M367.1,1080H351.55v-53.73l-14.05,24.18-14.06-24.18V1080H307.89V972.5l29.61,50.85,29.6-50.85Zm-14.55-1H366.1V976.21l-28.6,49.13-28.61-49.13V1079h13.55v-56.44l15.06,25.89,15.05-25.89Z"/><path class="cls-13" d="M467.85,1050.39a29.06,29.06,0,0,1-29.1,29.11H409.64V977.63h29.11a29.06,29.06,0,0,1,29.1,29.11,26.83,26.83,0,0,1-8.51,20.22,17,17,0,0,1-1.82,1.6,18.24,18.24,0,0,1,1.82,1.61A26.83,26.83,0,0,1,467.85,1050.39Zm-14.55-43.65q0-7.5-4.26-11.76a14,14,0,0,0-10.29-4.25H424.19V1022h14.56a13.45,13.45,0,0,0,10.29-4.63A15.23,15.23,0,0,0,453.3,1006.74Zm-14.55,59.66a14,14,0,0,0,10.29-4.25q4.26-4.26,4.26-11.76a14.91,14.91,0,0,0-4.26-11,14,14,0,0,0-10.29-4.26H424.19v31.29Z"/><path class="cls-13" d="M438.75,1080H409.14V977.13h29.61a29.57,29.57,0,0,1,29.6,29.61,27.48,27.48,0,0,1-8.66,20.59c-.44.43-.9.85-1.37,1.23a18.14,18.14,0,0,1,1.37,1.25,27.45,27.45,0,0,1,8.66,20.58,29.57,29.57,0,0,1-29.6,29.61Zm-28.61-1h28.61a28.56,28.56,0,0,0,28.6-28.61,26.48,26.48,0,0,0-8.36-19.86,17.54,17.54,0,0,0-1.78-1.57l-.51-.4.52-.39a19.58,19.58,0,0,0,1.77-1.56,26.52,26.52,0,0,0,8.36-19.87,28.56,28.56,0,0,0-28.6-28.61H410.14Zm28.61-12.1H423.69v-32.29h15.06A14.55,14.55,0,0,1,449.4,1039a15.46,15.46,0,0,1,4.4,11.37c0,5.11-1.48,9.19-4.4,12.11A14.58,14.58,0,0,1,438.75,1066.9Zm-14.05-1h14.05a13.59,13.59,0,0,0,9.94-4.11c2.73-2.73,4.11-6.56,4.11-11.4a14.5,14.5,0,0,0-4.11-10.67,13.63,13.63,0,0,0-9.94-4.11H424.7Zm14.05-43.38H423.69V990.23h15.06a14.58,14.58,0,0,1,10.65,4.4c2.92,2.92,4.4,7,4.4,12.11a15.82,15.82,0,0,1-4.39,11A14,14,0,0,1,438.75,1022.52Zm-14.05-1h14.05a13.11,13.11,0,0,0,9.93-4.46,14.88,14.88,0,0,0,4.12-10.32c0-4.84-1.38-8.67-4.11-11.4a13.59,13.59,0,0,0-9.94-4.11H424.7Z"/><path class="cls-13" d="M525.45,990.73v88.77H510.89V977.63H540a29.07,29.07,0,0,1,29.11,29.11,26.84,26.84,0,0,1-8.52,20.22,28,28,0,0,1-12.51,7.13l21.83,45.41H553.75L526.1,1022H540a14,14,0,0,0,10.3-4.26,14.94,14.94,0,0,0,4.25-11q0-7.5-4.25-11.76a14.06,14.06,0,0,0-10.3-4.25Z"/><path class="cls-13" d="M570.7,1080H553.44L526,1022.85V1080H510.39V977.13H540a29.57,29.57,0,0,1,29.61,29.61,27.49,27.49,0,0,1-8.67,20.59,28.81,28.81,0,0,1-12.15,7.09Zm-16.63-1h15l-21.75-45.24.59-.15a27.67,27.67,0,0,0,12.3-7,26.51,26.51,0,0,0,8.35-19.86A28.56,28.56,0,0,0,540,978.13H511.4V1079H525V990.23h15a14.56,14.56,0,0,1,10.65,4.4c2.92,2.92,4.4,7,4.4,12.11a15.46,15.46,0,0,1-4.4,11.37,14.59,14.59,0,0,1-10.65,4.41H526.9ZM526,1021.52h14a13.6,13.6,0,0,0,9.94-4.12,14.46,14.46,0,0,0,4.11-10.66c0-4.84-1.38-8.67-4.11-11.4a13.59,13.59,0,0,0-9.94-4.11H526Z"/><path class="cls-13" d="M670.36,1050.39a29.11,29.11,0,1,1-58.21,0v-43.65a29.11,29.11,0,1,1,58.21,0Zm-43.66,1.46a14.55,14.55,0,1,0,29.1,0v-46.57a14.55,14.55,0,1,0-29.1,0Z"/><path class="cls-13" d="M641.25,1080a29.57,29.57,0,0,1-29.6-29.61v-43.65a29.61,29.61,0,1,1,59.21,0v43.65A29.57,29.57,0,0,1,641.25,1080Zm0-101.87a28.56,28.56,0,0,0-28.6,28.61v43.65a28.61,28.61,0,1,0,57.21,0v-43.65a28.58,28.58,0,0,0-28.61-28.61Zm0,88.77a15,15,0,0,1-15-15.05v-46.57a15.06,15.06,0,1,1,30.11,0v46.57a15,15,0,0,1-15.06,15.05Zm0-75.67a14,14,0,0,0-14,14v46.57a14.05,14.05,0,1,0,28.1,0v-46.57a14,14,0,0,0-14-14Z"/><path class="cls-13" d="M771.61,1006.74,757.06,1014v-8.73a14.56,14.56,0,1,0-29.11,0q0,11.64,21.83,19.28t21.83,25.83a29.11,29.11,0,1,1-58.21,0l14.55-7.27v8.73a14.56,14.56,0,1,0,29.11,0q0-11.64-21.83-19.28t-21.83-25.83a29.11,29.11,0,1,1,58.21,0Z"/><path class="cls-13" d="M742.5,1080a29.57,29.57,0,0,1-29.6-29.61v-.3l15.55-7.78v9.54a14.06,14.06,0,1,0,28.11,0c0-7.49-7.24-13.82-21.5-18.81-14.7-5.15-22.16-14-22.16-26.3a29.61,29.61,0,1,1,59.21,0v.3l-15.55,7.78v-9.54a14.06,14.06,0,1,0-28.11,0c0,7.49,7.23,13.82,21.5,18.81,14.7,5.15,22.16,14,22.16,26.3A29.57,29.57,0,0,1,742.5,1080Zm-28.6-29.3a28.61,28.61,0,0,0,57.21-.31c0-11.83-7.23-20.36-21.49-25.36-14.71-5.14-22.17-11.79-22.17-19.75a15.06,15.06,0,1,1,30.11,0v7.92l13.55-6.77a28.61,28.61,0,0,0-57.21.31c0,11.83,7.23,20.36,21.49,25.35,14.71,5.15,22.17,11.8,22.17,19.76a15.06,15.06,0,1,1-30.11,0v-7.92Z"/><path class="cls-13" d="M865.59,977.63V1079.5H814.65v-13.1H851v-31.29h-29.1L814.65,1022H851V990.73H814.65v-13.1Z"/><path class="cls-13" d="M866.09,1080H814.15v-14.1h36.38v-30.29h-28.9l-7.83-14.09h36.73V991.23H814.15v-14.1h51.94Zm-50.94-1h49.93V978.13H815.15v12.1h36.38v32.29h-36l6.72,12.09h29.31v32.29H815.15Z"/></g></g></svg>